<svg xmlns="http://www.w3.org/2000/svg" width="474" height="709" viewBox="0 0 474 709">
<rect x="3" y="3" width="468" height="703" rx="28" fill="#fdfdf8" stroke="#8a8a8a" stroke-width="4"/>
<g transform="translate(52 0) scale(0.8 1) translate(-52 0)"><path d="M18.596638655462186 93.0V89.28851540616246H24.338935574229694Q26.299719887955185 89.28851540616246 27.490196078431374 88.30812324929971Q28.680672268907564 87.32773109243698 28.680672268907564 84.73669467787114V49.65266106442577Q25.949579831932773 52.943977591036415 23.84873949579832 54.93977591036415Q21.747899159663866 56.93557422969187 19.647058823529413 56.93557422969187Q17.96638655462185 56.93557422969187 16.77591036414566 55.535014005602235Q15.58543417366947 54.134453781512605 15.58543417366947 51.753501400560225Q17.686274509803923 51.19327731092437 20.27731092436975 50.07282913165266Q22.86834733893558 48.95238095238095 26.369747899159666 46.36134453781513L31.271708683473392 42.719887955182074H39.11484593837535V84.73669467787114Q39.11484593837535 89.28851540616246 43.45658263305322 89.28851540616246H47.938375350140056V93.0Z M71.81792717086834 93.70028011204482Q65.37535014005603 93.70028011204482 61.62885154061625 90.47899159663865Q57.88235294117647 87.25770308123249 56.23669467787115 81.44537815126051Q54.59103641456583 75.63305322128852 54.59103641456583 67.85994397759103Q54.59103641456583 60.086834733893554 56.23669467787115 54.344537815126046Q57.88235294117647 48.602240896358545 61.66386554621849 45.450980392156865Q65.4453781512605 42.299719887955185 71.88795518207283 42.299719887955185Q77.98039215686275 42.299719887955185 81.72689075630252 45.450980392156865Q85.4733893557423 48.602240896358545 87.22408963585434 54.379551820728295Q88.9747899159664 60.15686274509804 88.9747899159664 67.92997198879551Q88.9747899159664 75.70308123249299 87.22408963585434 81.48039215686273Q85.4733893557423 87.25770308123249 81.69187675070029 90.47899159663865Q77.91036414565826 93.70028011204482 71.81792717086834 93.70028011204482ZM71.81792717086834 89.1484593837535Q75.66946778711485 89.1484593837535 76.85994397759104 83.54621848739495Q78.05042016806723 77.94397759103641 78.05042016806723 67.92997198879551Q78.05042016806723 57.91596638655462 76.85994397759104 52.38375350140056Q75.66946778711485 46.851540616246496 71.88795518207283 46.851540616246496Q67.89635854341736 46.851540616246496 66.67086834733894 52.38375350140056Q65.4453781512605 57.91596638655462 65.4453781512605 67.92997198879551Q65.4453781512605 77.94397759103641 66.67086834733894 83.54621848739495Q67.89635854341736 89.1484593837535 71.81792717086834 89.1484593837535Z" fill="#c8102e"/></g><path d="M52.071917808219176 152.99999999999997Q51.28082191780822 149.90753424657532 49.644691780821915 146.6352739726027Q48.00856164383562 143.3630136986301 41.679794520547944 134.8767123287671L38.44349315068493 130.45376712328766Q35.74657534246575 126.85787671232876 34.775684931506845 124.53852739726027Q33.804794520547944 122.21917808219177 33.804794520547944 119.84589041095889Q33.804794520547944 115.99828767123287 36.30393835616438 113.53510273972601Q38.80308219178082 111.07191780821915 42.43493150684931 111.07191780821915Q45.56335616438356 111.07191780821915 48.134417808219176 113.12157534246573Q50.70547945205479 115.17123287671231 52.071917808219176 119.486301369863Q53.294520547945204 115.2071917808219 55.84760273972603 113.10359589041094Q58.400684931506845 110.99999999999999 61.56506849315068 110.99999999999999Q65.05308219178082 110.99999999999999 67.62414383561644 113.44520547945204Q70.19520547945206 115.8904109589041 70.19520547945206 119.41438356164383Q70.19520547945206 122.50684931506848 68.61301369863014 125.92294520547944Q67.03082191780821 129.3390410958904 63.03938356164383 134.26541095890408Q58.005136986301366 140.70205479452054 55.68578767123287 144.53167808219177Q53.36643835616438 148.36130136986299 52.071917808219176 152.99999999999997Z" fill="#c8102e"/><g transform="rotate(180 237.0 354.5)"><g transform="translate(52 0) scale(0.8 1) translate(-52 0)"><path d="M18.596638655462186 93.0V89.28851540616246H24.338935574229694Q26.299719887955185 89.28851540616246 27.490196078431374 88.30812324929971Q28.680672268907564 87.32773109243698 28.680672268907564 84.73669467787114V49.65266106442577Q25.949579831932773 52.943977591036415 23.84873949579832 54.93977591036415Q21.747899159663866 56.93557422969187 19.647058823529413 56.93557422969187Q17.96638655462185 56.93557422969187 16.77591036414566 55.535014005602235Q15.58543417366947 54.134453781512605 15.58543417366947 51.753501400560225Q17.686274509803923 51.19327731092437 20.27731092436975 50.07282913165266Q22.86834733893558 48.95238095238095 26.369747899159666 46.36134453781513L31.271708683473392 42.719887955182074H39.11484593837535V84.73669467787114Q39.11484593837535 89.28851540616246 43.45658263305322 89.28851540616246H47.938375350140056V93.0Z M71.81792717086834 93.70028011204482Q65.37535014005603 93.70028011204482 61.62885154061625 90.47899159663865Q57.88235294117647 87.25770308123249 56.23669467787115 81.44537815126051Q54.59103641456583 75.63305322128852 54.59103641456583 67.85994397759103Q54.59103641456583 60.086834733893554 56.23669467787115 54.344537815126046Q57.88235294117647 48.602240896358545 61.66386554621849 45.450980392156865Q65.4453781512605 42.299719887955185 71.88795518207283 42.299719887955185Q77.98039215686275 42.299719887955185 81.72689075630252 45.450980392156865Q85.4733893557423 48.602240896358545 87.22408963585434 54.379551820728295Q88.9747899159664 60.15686274509804 88.9747899159664 67.92997198879551Q88.9747899159664 75.70308123249299 87.22408963585434 81.48039215686273Q85.4733893557423 87.25770308123249 81.69187675070029 90.47899159663865Q77.91036414565826 93.70028011204482 71.81792717086834 93.70028011204482ZM71.81792717086834 89.1484593837535Q75.66946778711485 89.1484593837535 76.85994397759104 83.54621848739495Q78.05042016806723 77.94397759103641 78.05042016806723 67.92997198879551Q78.05042016806723 57.91596638655462 76.85994397759104 52.38375350140056Q75.66946778711485 46.851540616246496 71.88795518207283 46.851540616246496Q67.89635854341736 46.851540616246496 66.67086834733894 52.38375350140056Q65.4453781512605 57.91596638655462 65.4453781512605 67.92997198879551Q65.4453781512605 77.94397759103641 66.67086834733894 83.54621848739495Q67.89635854341736 89.1484593837535 71.81792717086834 89.1484593837535Z" fill="#c8102e"/></g><path d="M52.071917808219176 152.99999999999997Q51.28082191780822 149.90753424657532 49.644691780821915 146.6352739726027Q48.00856164383562 143.3630136986301 41.679794520547944 134.8767123287671L38.44349315068493 130.45376712328766Q35.74657534246575 126.85787671232876 34.775684931506845 124.53852739726027Q33.804794520547944 122.21917808219177 33.804794520547944 119.84589041095889Q33.804794520547944 115.99828767123287 36.30393835616438 113.53510273972601Q38.80308219178082 111.07191780821915 42.43493150684931 111.07191780821915Q45.56335616438356 111.07191780821915 48.134417808219176 113.12157534246573Q50.70547945205479 115.17123287671231 52.071917808219176 119.486301369863Q53.294520547945204 115.2071917808219 55.84760273972603 113.10359589041094Q58.400684931506845 110.99999999999999 61.56506849315068 110.99999999999999Q65.05308219178082 110.99999999999999 67.62414383561644 113.44520547945204Q70.19520547945206 115.8904109589041 70.19520547945206 119.41438356164383Q70.19520547945206 122.50684931506848 68.61301369863014 125.92294520547944Q67.03082191780821 129.3390410958904 63.03938356164383 134.26541095890408Q58.005136986301366 140.70205479452054 55.68578767123287 144.53167808219177Q53.36643835616438 148.36130136986299 52.071917808219176 152.99999999999997Z" fill="#c8102e"/></g><path d="M150.1404109589041 191.0Q148.5958904109589 184.96232876712327 145.40154109589042 178.57363013698628Q142.20719178082192 172.1849315068493 129.85102739726028 155.61643835616437L123.53253424657534 146.98116438356163Q118.26712328767123 139.96061643835617 116.37157534246575 135.43236301369862Q114.47602739726027 130.90410958904107 114.47602739726027 126.27054794520546Q114.47602739726027 118.7585616438356 119.35530821917808 113.94948630136986Q124.23458904109589 109.1404109589041 131.3253424657534 109.1404109589041Q137.4332191780822 109.1404109589041 142.4529109589041 113.14212328767123Q147.47260273972603 117.14383561643835 150.1404109589041 125.56849315068493Q152.52739726027397 117.2140410958904 157.51198630136986 113.10702054794518Q162.49657534246575 108.99999999999999 168.67465753424656 108.99999999999999Q175.4845890410959 108.99999999999999 180.5042808219178 113.77397260273972Q185.52397260273972 118.54794520547944 185.52397260273972 125.42808219178082Q185.52397260273972 131.46575342465752 182.4349315068493 138.13527397260273Q179.3458904109589 144.80479452054794 171.55308219178082 154.42294520547944Q161.72431506849313 166.98972602739724 157.1960616438356 174.46660958904107Q152.66780821917808 181.94349315068493 150.1404109589041 191.0Z" fill="#c8102e"/><path d="M324.1404109589041 191.0Q322.59589041095893 184.96232876712327 319.4015410958904 178.57363013698628Q316.2071917808219 172.1849315068493 303.8510273972603 155.61643835616437L297.5325342465754 146.98116438356163Q292.26712328767127 139.96061643835617 290.3715753424658 135.43236301369862Q288.4760273972603 130.90410958904107 288.4760273972603 126.27054794520546Q288.4760273972603 118.7585616438356 293.3553082191781 113.94948630136986Q298.2345890410959 109.1404109589041 305.32534246575347 109.1404109589041Q311.4332191780822 109.1404109589041 316.4529109589041 113.14212328767123Q321.472602739726 117.14383561643835 324.1404109589041 125.56849315068493Q326.527397260274 117.2140410958904 331.5119863013699 113.10702054794518Q336.4965753424658 108.99999999999999 342.6746575342466 108.99999999999999Q349.4845890410959 108.99999999999999 354.5042808219178 113.77397260273972Q359.5239726027397 118.54794520547944 359.5239726027397 125.42808219178082Q359.5239726027397 131.46575342465752 356.43493150684935 138.13527397260273Q353.34589041095893 144.80479452054794 345.55308219178085 154.42294520547944Q335.7243150684932 166.98972602739724 331.1960616438356 174.46660958904107Q326.6678082191781 181.94349315068493 324.1404109589041 191.0Z" fill="#c8102e"/><path d="M237.1404109589041 259.16666666666663Q235.5958904109589 253.12899543378992 232.40154109589042 246.74029680365294Q229.20719178082192 240.35159817351595 216.85102739726028 223.78310502283102L210.53253424657532 215.1478310502283Q205.2671232876712 208.1272831050228 203.37157534246575 203.59902968036528Q201.47602739726025 199.07077625570776 201.47602739726025 194.43721461187212Q201.47602739726025 186.92522831050226 206.35530821917808 182.1161529680365Q211.2345890410959 177.30707762557074 218.3253424657534 177.30707762557074Q224.4332191780822 177.30707762557074 229.4529109589041 181.30878995433787Q234.47260273972603 185.310502283105 237.1404109589041 193.7351598173516Q239.52739726027397 185.38070776255705 244.51198630136986 181.27368721461184Q249.49657534246575 177.16666666666663 255.67465753424656 177.16666666666663Q262.4845890410959 177.16666666666663 267.5042808219178 181.94063926940635Q272.5239726027397 186.7146118721461 272.5239726027397 193.59474885844747Q272.5239726027397 199.63242009132418 269.4349315068493 206.3019406392694Q266.3458904109589 212.9714611872146 258.55308219178085 222.5896118721461Q248.72431506849313 235.15639269406392 244.1960616438356 242.63327625570776Q239.66780821917808 250.1101598173516 237.1404109589041 259.16666666666663Z" fill="#c8102e"/><path d="M150.1404109589041 327.3333333333333Q148.5958904109589 321.29566210045664 145.40154109589042 314.9069634703196Q142.20719178082192 308.51826484018267 129.85102739726028 291.9497716894977L123.53253424657534 283.31449771689495Q118.26712328767123 276.2939497716895 116.37157534246575 271.76569634703196Q114.47602739726027 267.23744292237444 114.47602739726027 262.60388127853884Q114.47602739726027 255.09189497716895 119.35530821917808 250.28281963470317Q124.23458904109589 245.47374429223743 131.3253424657534 245.47374429223743Q137.4332191780822 245.47374429223743 142.4529109589041 249.47545662100455Q147.47260273972603 253.47716894977168 150.1404109589041 261.9018264840183Q152.52739726027397 253.54737442922374 157.51198630136986 249.44035388127853Q162.49657534246575 245.33333333333331 168.67465753424656 245.33333333333331Q175.4845890410959 245.33333333333331 180.5042808219178 250.10730593607303Q185.52397260273972 254.88127853881278 185.52397260273972 261.76141552511416Q185.52397260273972 267.79908675799084 182.4349315068493 274.4686073059361Q179.3458904109589 281.13812785388126 171.55308219178082 290.7562785388128Q161.72431506849313 303.3230593607306 157.1960616438356 310.79994292237444Q152.66780821917808 318.2768264840183 150.1404109589041 327.3333333333333Z" fill="#c8102e"/><path d="M324.1404109589041 327.3333333333333Q322.59589041095893 321.29566210045664 319.4015410958904 314.9069634703196Q316.2071917808219 308.51826484018267 303.8510273972603 291.9497716894977L297.5325342465754 283.31449771689495Q292.26712328767127 276.2939497716895 290.3715753424658 271.76569634703196Q288.4760273972603 267.23744292237444 288.4760273972603 262.60388127853884Q288.4760273972603 255.09189497716895 293.3553082191781 250.28281963470317Q298.2345890410959 245.47374429223743 305.32534246575347 245.47374429223743Q311.4332191780822 245.47374429223743 316.4529109589041 249.47545662100455Q321.472602739726 253.47716894977168 324.1404109589041 261.9018264840183Q326.527397260274 253.54737442922374 331.5119863013699 249.44035388127853Q336.4965753424658 245.33333333333331 342.6746575342466 245.33333333333331Q349.4845890410959 245.33333333333331 354.5042808219178 250.10730593607303Q359.5239726027397 254.88127853881278 359.5239726027397 261.76141552511416Q359.5239726027397 267.79908675799084 356.43493150684935 274.4686073059361Q353.34589041095893 281.13812785388126 345.55308219178085 290.7562785388128Q335.7243150684932 303.3230593607306 331.1960616438356 310.79994292237444Q326.6678082191781 318.2768264840183 324.1404109589041 327.3333333333333Z" fill="#c8102e"/><g transform="rotate(180 150 422.66666666666663)"><path d="M150.1404109589041 463.66666666666663Q148.5958904109589 457.62899543378995 145.40154109589042 451.240296803653Q142.20719178082192 444.851598173516 129.85102739726028 428.283105022831L123.53253424657534 419.6478310502283Q118.26712328767123 412.6272831050228 116.37157534246575 408.0990296803653Q114.47602739726027 403.57077625570776 114.47602739726027 398.93721461187215Q114.47602739726027 391.42522831050223 119.35530821917808 386.6161529680365Q124.23458904109589 381.80707762557074 131.3253424657534 381.80707762557074Q137.4332191780822 381.80707762557074 142.4529109589041 385.80878995433784Q147.47260273972603 389.810502283105 150.1404109589041 398.2351598173516Q152.52739726027397 389.88070776255705 157.51198630136986 385.77368721461187Q162.49657534246575 381.66666666666663 168.67465753424656 381.66666666666663Q175.4845890410959 381.66666666666663 180.5042808219178 386.44063926940635Q185.52397260273972 391.21461187214607 185.52397260273972 398.0947488584475Q185.52397260273972 404.1324200913242 182.4349315068493 410.8019406392694Q179.3458904109589 417.4714611872146 171.55308219178082 427.0896118721461Q161.72431506849313 439.6563926940639 157.1960616438356 447.13327625570776Q152.66780821917808 454.6101598173516 150.1404109589041 463.66666666666663Z" fill="#c8102e"/></g><g transform="rotate(180 324 422.66666666666663)"><path d="M324.1404109589041 463.66666666666663Q322.59589041095893 457.62899543378995 319.4015410958904 451.240296803653Q316.2071917808219 444.851598173516 303.8510273972603 428.283105022831L297.5325342465754 419.6478310502283Q292.26712328767127 412.6272831050228 290.3715753424658 408.0990296803653Q288.4760273972603 403.57077625570776 288.4760273972603 398.93721461187215Q288.4760273972603 391.42522831050223 293.3553082191781 386.6161529680365Q298.2345890410959 381.80707762557074 305.32534246575347 381.80707762557074Q311.4332191780822 381.80707762557074 316.4529109589041 385.80878995433784Q321.472602739726 389.810502283105 324.1404109589041 398.2351598173516Q326.527397260274 389.88070776255705 331.5119863013699 385.77368721461187Q336.4965753424658 381.66666666666663 342.6746575342466 381.66666666666663Q349.4845890410959 381.66666666666663 354.5042808219178 386.44063926940635Q359.5239726027397 391.21461187214607 359.5239726027397 398.0947488584475Q359.5239726027397 404.1324200913242 356.43493150684935 410.8019406392694Q353.34589041095893 417.4714611872146 345.55308219178085 427.0896118721461Q335.7243150684932 439.6563926940639 331.1960616438356 447.13327625570776Q326.6678082191781 454.6101598173516 324.1404109589041 463.66666666666663Z" fill="#c8102e"/></g><g transform="rotate(180 237.0 490.83333333333337)"><path d="M237.1404109589041 531.8333333333334Q235.5958904109589 525.7956621004566 232.40154109589042 519.4069634703196Q229.20719178082192 513.0182648401826 216.85102739726028 496.4497716894977L210.53253424657532 487.81449771689495Q205.2671232876712 480.7939497716895 203.37157534246575 476.26569634703196Q201.47602739726025 471.73744292237444 201.47602739726025 467.10388127853884Q201.47602739726025 459.591894977169 206.35530821917808 454.7828196347032Q211.2345890410959 449.9737442922374 218.3253424657534 449.9737442922374Q224.4332191780822 449.9737442922374 229.4529109589041 453.9754566210046Q234.47260273972603 457.9771689497717 237.1404109589041 466.4018264840183Q239.52739726027397 458.04737442922374 244.51198630136986 453.9403538812785Q249.49657534246575 449.8333333333333 255.67465753424656 449.8333333333333Q262.4845890410959 449.8333333333333 267.5042808219178 454.6073059360731Q272.5239726027397 459.3812785388128 272.5239726027397 466.26141552511416Q272.5239726027397 472.29908675799084 269.4349315068493 478.9686073059361Q266.3458904109589 485.63812785388126 258.55308219178085 495.2562785388128Q248.72431506849313 507.8230593607306 244.1960616438356 515.2999429223744Q239.66780821917808 522.7768264840182 237.1404109589041 531.8333333333334Z" fill="#c8102e"/></g><g transform="rotate(180 150 559)"><path d="M150.1404109589041 600.0Q148.5958904109589 593.9623287671233 145.40154109589042 587.5736301369863Q142.20719178082192 581.1849315068492 129.85102739726028 564.6164383561644L123.53253424657534 555.9811643835616Q118.26712328767123 548.9606164383562 116.37157534246575 544.4323630136986Q114.47602739726027 539.904109589041 114.47602739726027 535.2705479452054Q114.47602739726027 527.7585616438356 119.35530821917808 522.9494863013699Q124.23458904109589 518.1404109589041 131.3253424657534 518.1404109589041Q137.4332191780822 518.1404109589041 142.4529109589041 522.1421232876712Q147.47260273972603 526.1438356164383 150.1404109589041 534.5684931506848Q152.52739726027397 526.2140410958904 157.51198630136986 522.1070205479452Q162.49657534246575 518.0 168.67465753424656 518.0Q175.4845890410959 518.0 180.5042808219178 522.7739726027397Q185.52397260273972 527.5479452054794 185.52397260273972 534.4280821917807Q185.52397260273972 540.4657534246575 182.4349315068493 547.1352739726027Q179.3458904109589 553.804794520548 171.55308219178082 563.4229452054794Q161.72431506849313 575.9897260273972 157.1960616438356 583.466609589041Q152.66780821917808 590.9434931506848 150.1404109589041 600.0Z" fill="#c8102e"/></g><g transform="rotate(180 324 559)"><path d="M324.1404109589041 600.0Q322.59589041095893 593.9623287671233 319.4015410958904 587.5736301369863Q316.2071917808219 581.1849315068492 303.8510273972603 564.6164383561644L297.5325342465754 555.9811643835616Q292.26712328767127 548.9606164383562 290.3715753424658 544.4323630136986Q288.4760273972603 539.904109589041 288.4760273972603 535.2705479452054Q288.4760273972603 527.7585616438356 293.3553082191781 522.9494863013699Q298.2345890410959 518.1404109589041 305.32534246575347 518.1404109589041Q311.4332191780822 518.1404109589041 316.4529109589041 522.1421232876712Q321.472602739726 526.1438356164383 324.1404109589041 534.5684931506848Q326.527397260274 526.2140410958904 331.5119863013699 522.1070205479452Q336.4965753424658 518.0 342.6746575342466 518.0Q349.4845890410959 518.0 354.5042808219178 522.7739726027397Q359.5239726027397 527.5479452054794 359.5239726027397 534.4280821917807Q359.5239726027397 540.4657534246575 356.43493150684935 547.1352739726027Q353.34589041095893 553.804794520548 345.55308219178085 563.4229452054794Q335.7243150684932 575.9897260273972 331.1960616438356 583.466609589041Q326.6678082191781 590.9434931506848 324.1404109589041 600.0Z" fill="#c8102e"/></g>
</svg>
